<?xml version="1.0" encoding="UTF-8" standalone="no"?>
<!DOCTYPE svg PUBLIC "-//W3C//DTD SVG 1.1//EN"
 "http://www.w3.org/Graphics/SVG/1.1/DTD/svg11.dtd">
<!-- Generated by graphviz version 2.43.0 (0)
 -->
<!-- Title: Log Pages: 1 -->
<svg width="813pt" height="2029pt"
 viewBox="0.00 0.00 813.00 2028.50" xmlns="http://www.w3.org/2000/svg" xmlns:xlink="http://www.w3.org/1999/xlink">
<g id="graph0" class="graph" transform="scale(1 1) rotate(0) translate(4 2024.5)">
<title>Log</title>
<polygon fill="white" stroke="transparent" points="-4,4 -4,-2024.5 809,-2024.5 809,4 -4,4"/>
<g id="clust1" class="cluster">
<title>cluster_metadata</title>
<polygon fill="none" stroke="black" points="8,-1885 8,-2012.5 325,-2012.5 325,-1885 8,-1885"/>
</g>
<g id="clust2" class="cluster">
<title>cluster_legend</title>
<polygon fill="none" stroke="black" points="113,-1900.5 113,-2004.5 317,-2004.5 317,-1900.5 113,-1900.5"/>
<text text-anchor="middle" x="215" y="-1989.3" font-family="Times" font-size="14.00">Legend</text>
</g>
<g id="clust5" class="cluster">
<title>cluster_log</title>
<polygon fill="none" stroke="black" points="407,-8 407,-2011.5 797,-2011.5 797,-8 407,-8"/>
</g>
<g id="clust6" class="cluster">
<title>cluster_func_0</title>
<polygon fill="#efefef" stroke="black" points="415,-16 415,-2003.5 789,-2003.5 789,-16 415,-16"/>
<text text-anchor="start" x="423" y="-1989.3" font-family="Times" font-weight="bold" font-style="italic" font-size="14.00">main()</text>
</g>
<g id="clust7" class="cluster">
<title>cluster_func_7</title>
<polygon fill="#dfdfdf" stroke="black" points="435,-214 435,-1333 769,-1333 769,-214 435,-214"/>
<text text-anchor="start" x="443" y="-1318.8" font-family="Times" font-weight="bold" font-style="italic" font-size="14.00">doMaxsStuff()</text>
</g>
<!-- legend_names -->
<g id="node1" class="node">
<title>legend_names</title>
<text text-anchor="start" x="132" y="-1955.8" font-family="Times" font-size="14.00">timeline </text>
<text text-anchor="start" x="132" y="-1936.8" font-family="Times" font-size="14.00">variable lifespan </text>
<text text-anchor="start" x="132" y="-1917.8" font-family="Times" font-size="14.00">variable usage </text>
</g>
<!-- legend_targets -->
<g id="node2" class="node">
<title>legend_targets</title>
<text text-anchor="start" x="280" y="-1955.8" font-family="Times" font-size="14.00"> </text>
<text text-anchor="start" x="280" y="-1936.8" font-family="Times" font-size="14.00"> </text>
<text text-anchor="start" x="280" y="-1917.8" font-family="Times" font-size="14.00"> </text>
</g>
<!-- legend_names&#45;&gt;legend_targets -->
<g id="edge1" class="edge">
<title>legend_names:e&#45;&gt;legend_targets:w</title>
<path fill="none" stroke="red" stroke-dasharray="5,2" d="M229,-1957C229,-1957 268,-1957 268,-1957"/>
<polygon fill="red" stroke="red" points="268,-1960.5 278,-1957 268,-1953.5 268,-1960.5"/>
</g>
<!-- legend_names&#45;&gt;legend_targets -->
<g id="edge2" class="edge">
<title>legend_names:e&#45;&gt;legend_targets:w</title>
<path fill="none" stroke="black" stroke-dasharray="5,2" d="M229,-1941C229,-1941 268,-1941 268,-1941"/>
<polygon fill="black" stroke="black" points="268,-1944.5 278,-1941 268,-1937.5 268,-1944.5"/>
</g>
<!-- legend_names&#45;&gt;legend_targets -->
<g id="edge3" class="edge">
<title>legend_names:e&#45;&gt;legend_targets:w</title>
<path fill="none" stroke="#6060c0" d="M229,-1924C229,-1924 268,-1924 268,-1924"/>
<polygon fill="#6060c0" stroke="#6060c0" points="268,-1927.5 278,-1924 268,-1920.5 268,-1927.5"/>
</g>
<!-- tmp_1 -->
<!-- node_1 -->
<g id="node4" class="node">
<title>node_1</title>
<polygon fill="white" stroke="transparent" points="717,-1972.5 541,-1972.5 541,-1909.5 717,-1909.5 717,-1972.5"/>
<polygon fill="#40c040" stroke="transparent" points="541,-1951 541,-1972 717,-1972 717,-1951 541,-1951"/>
<polygon fill="none" stroke="black" points="541,-1951 541,-1972 717,-1972 717,-1951 541,-1951"/>
<text text-anchor="start" x="544" y="-1958.8" font-family="Times" font-weight="bold" font-size="14.00">ctor</text>
<polygon fill="none" stroke="black" points="541,-1930 541,-1951 554,-1951 554,-1930 541,-1930"/>
<text text-anchor="start" x="544" y="-1936.8" font-family="Times" font-size="14.00">a</text>
<polygon fill="none" stroke="black" points="554,-1930 554,-1951 574,-1951 574,-1930 554,-1930"/>
<text text-anchor="start" x="557" y="-1936.8" font-family="Times" font-size="14.00">#0</text>
<polygon fill="none" stroke="black" points="574,-1930 574,-1951 682,-1951 682,-1930 574,-1930"/>
<text text-anchor="start" x="577" y="-1936.8" font-family="Times" font-size="14.00">0x7ffe88a0e4d0:0 </text>
<polygon fill="none" stroke="black" points="682,-1930 682,-1951 717,-1951 717,-1930 682,-1930"/>
<text text-anchor="start" x="685" y="-1936.8" font-family="Times" font-size="14.00">=123</text>
<polygon fill="none" stroke="black" points="541,-1909 541,-1930 717,-1930 717,-1909 541,-1909"/>
<text text-anchor="start" x="544" y="-1916.8" font-family="Times" font-style="italic" font-size="14.00"> </text>
</g>
<!-- node_2 -->
<g id="node5" class="node">
<title>node_2</title>
<polygon fill="white" stroke="transparent" points="716.5,-1857 541.5,-1857 541.5,-1794 716.5,-1794 716.5,-1857"/>
<polygon fill="#40c040" stroke="transparent" points="542,-1835.5 542,-1856.5 717,-1856.5 717,-1835.5 542,-1835.5"/>
<polygon fill="none" stroke="black" points="542,-1835.5 542,-1856.5 717,-1856.5 717,-1835.5 542,-1835.5"/>
<text text-anchor="start" x="545" y="-1843.3" font-family="Times" font-weight="bold" font-size="14.00">ctor</text>
<polygon fill="none" stroke="black" points="542,-1814.5 542,-1835.5 555,-1835.5 555,-1814.5 542,-1814.5"/>
<text text-anchor="start" x="545" y="-1821.3" font-family="Times" font-size="14.00">b</text>
<polygon fill="none" stroke="black" points="555,-1814.5 555,-1835.5 575,-1835.5 575,-1814.5 555,-1814.5"/>
<text text-anchor="start" x="558" y="-1821.3" font-family="Times" font-size="14.00">#1</text>
<polygon fill="none" stroke="black" points="575,-1814.5 575,-1835.5 682,-1835.5 682,-1814.5 575,-1814.5"/>
<text text-anchor="start" x="578" y="-1821.3" font-family="Times" font-size="14.00">0x7ffe88a0e4a8:1 </text>
<polygon fill="none" stroke="black" points="682,-1814.5 682,-1835.5 717,-1835.5 717,-1814.5 682,-1814.5"/>
<text text-anchor="start" x="685" y="-1821.3" font-family="Times" font-size="14.00">=456</text>
<polygon fill="none" stroke="black" points="542,-1793.5 542,-1814.5 717,-1814.5 717,-1793.5 542,-1793.5"/>
<text text-anchor="start" x="545" y="-1801.3" font-family="Times" font-style="italic" font-size="14.00"> </text>
</g>
<!-- node_1&#45;&gt;node_2 -->
<g id="edge11" class="edge">
<title>node_1&#45;&gt;node_2</title>
<path fill="none" stroke="red" stroke-dasharray="5,2" d="M629,-1909.44C629,-1909.44 629,-1867.02 629,-1867.02"/>
<polygon fill="red" stroke="red" points="632.5,-1867.02 629,-1857.02 625.5,-1867.02 632.5,-1867.02"/>
<text text-anchor="middle" x="625.5" y="-1892.03" font-family="Times" font-size="14.00">1</text>
</g>
<!-- node_3 -->
<g id="node6" class="node">
<title>node_3</title>
<polygon fill="white" stroke="transparent" points="741,-1758 517,-1758 517,-1653 741,-1653 741,-1758"/>
<polygon fill="#f00000" stroke="transparent" points="517,-1736.5 517,-1757.5 741,-1757.5 741,-1736.5 517,-1736.5"/>
<polygon fill="none" stroke="black" points="517,-1736.5 517,-1757.5 741,-1757.5 741,-1736.5 517,-1736.5"/>
<text text-anchor="start" x="520" y="-1744.3" font-family="Times" font-weight="bold" font-size="14.00">COPY</text>
<polygon fill="none" stroke="black" points="517,-1715.5 517,-1736.5 578,-1736.5 578,-1715.5 517,-1715.5"/>
<text text-anchor="start" x="520" y="-1723.3" font-family="Times" font-style="italic" font-size="14.00">&lt;tmp_2&gt;</text>
<polygon fill="none" stroke="black" points="578,-1715.5 578,-1736.5 598,-1736.5 598,-1715.5 578,-1715.5"/>
<text text-anchor="start" x="581" y="-1722.3" font-family="Times" font-size="14.00">#2</text>
<polygon fill="none" stroke="black" points="598,-1715.5 598,-1736.5 706,-1736.5 706,-1715.5 598,-1715.5"/>
<text text-anchor="start" x="601" y="-1722.3" font-family="Times" font-size="14.00">0x7ffe88a0e4f8:2 </text>
<polygon fill="none" stroke="black" points="706,-1715.5 706,-1736.5 741,-1736.5 741,-1715.5 706,-1715.5"/>
<text text-anchor="start" x="709" y="-1722.3" font-family="Times" font-size="14.00">=0</text>
<polygon fill="none" stroke="black" points="517,-1694.5 517,-1715.5 741,-1715.5 741,-1694.5 517,-1694.5"/>
<text text-anchor="start" x="520" y="-1702.3" font-family="Times" font-style="italic" font-size="14.00"> </text>
<polygon fill="none" stroke="black" points="517,-1673.5 517,-1694.5 578,-1694.5 578,-1673.5 517,-1673.5"/>
<text text-anchor="start" x="520" y="-1680.3" font-family="Times" font-size="14.00">a</text>
<polygon fill="none" stroke="black" points="578,-1673.5 578,-1694.5 598,-1694.5 598,-1673.5 578,-1673.5"/>
<text text-anchor="start" x="581" y="-1680.3" font-family="Times" font-size="14.00">#0</text>
<polygon fill="none" stroke="black" points="598,-1673.5 598,-1694.5 706,-1694.5 706,-1673.5 598,-1673.5"/>
<text text-anchor="start" x="601" y="-1680.3" font-family="Times" font-size="14.00">0x7ffe88a0e4d0:0 </text>
<polygon fill="none" stroke="black" points="706,-1673.5 706,-1694.5 741,-1694.5 741,-1673.5 706,-1673.5"/>
<text text-anchor="start" x="709" y="-1680.3" font-family="Times" font-size="14.00">=123</text>
<polygon fill="none" stroke="black" points="517,-1652.5 517,-1673.5 741,-1673.5 741,-1652.5 517,-1652.5"/>
<text text-anchor="start" x="520" y="-1660.3" font-family="Times" font-style="italic" font-size="14.00">a </text>
</g>
<!-- node_1&#45;&gt;node_3 -->
<g id="edge28" class="edge">
<title>node_1&#45;&gt;node_3</title>
<path fill="none" stroke="#6060c0" d="M540.86,-1916C533.62,-1916 529,-1916 529,-1916 529,-1916 529,-1768.08 529,-1768.08"/>
<polygon fill="#6060c0" stroke="#6060c0" points="532.5,-1768.08 529,-1758.08 525.5,-1768.08 532.5,-1768.08"/>
</g>
<!-- node_20 -->
<g id="node21" class="node">
<title>node_20</title>
<polygon fill="white" stroke="transparent" points="720,-87 544,-87 544,-24 720,-24 720,-87"/>
<polygon fill="#c04040" stroke="transparent" points="544,-65.5 544,-86.5 720,-86.5 720,-65.5 544,-65.5"/>
<polygon fill="none" stroke="black" points="544,-65.5 544,-86.5 720,-86.5 720,-65.5 544,-65.5"/>
<text text-anchor="start" x="547" y="-73.3" font-family="Times" font-weight="bold" font-size="14.00">dtor</text>
<polygon fill="none" stroke="black" points="544,-44.5 544,-65.5 557,-65.5 557,-44.5 544,-44.5"/>
<text text-anchor="start" x="547" y="-51.3" font-family="Times" font-size="14.00">a</text>
<polygon fill="none" stroke="black" points="557,-44.5 557,-65.5 577,-65.5 577,-44.5 557,-44.5"/>
<text text-anchor="start" x="560" y="-51.3" font-family="Times" font-size="14.00">#0</text>
<polygon fill="none" stroke="black" points="577,-44.5 577,-65.5 685,-65.5 685,-44.5 577,-44.5"/>
<text text-anchor="start" x="580" y="-51.3" font-family="Times" font-size="14.00">0x7ffe88a0e4d0:0 </text>
<polygon fill="none" stroke="black" points="685,-44.5 685,-65.5 720,-65.5 720,-44.5 685,-44.5"/>
<text text-anchor="start" x="688" y="-51.3" font-family="Times" font-size="14.00">=123</text>
<polygon fill="none" stroke="black" points="544,-23.5 544,-44.5 720,-44.5 720,-23.5 544,-23.5"/>
<text text-anchor="start" x="547" y="-31.3" font-family="Times" font-style="italic" font-size="14.00">a </text>
</g>
<!-- node_1&#45;&gt;node_20 -->
<g id="edge10" class="edge">
<title>node_1&#45;&gt;node_20</title>
<path fill="none" stroke="black" stroke-dasharray="5,2" d="M717.31,-1941C755.39,-1941 791.36,-1941 791.36,-1941 791.36,-1941 791.36,-55 791.36,-55 791.36,-55 730.07,-55 730.07,-55"/>
<polygon fill="black" stroke="black" points="730.07,-51.5 720.07,-55 730.07,-58.5 730.07,-51.5"/>
</g>
<!-- node_2&#45;&gt;node_3 -->
<g id="edge12" class="edge">
<title>node_2&#45;&gt;node_3</title>
<path fill="none" stroke="red" stroke-dasharray="5,2" d="M629,-1793.97C629,-1793.97 629,-1768.16 629,-1768.16"/>
<polygon fill="red" stroke="red" points="632.5,-1768.16 629,-1758.16 625.5,-1768.16 632.5,-1768.16"/>
<text text-anchor="middle" x="625.5" y="-1769.87" font-family="Times" font-size="14.00">2</text>
</g>
<!-- node_4 -->
<g id="node7" class="node">
<title>node_4</title>
<polygon fill="white" stroke="transparent" points="740.5,-1617 517.5,-1617 517.5,-1512 740.5,-1512 740.5,-1617"/>
<polygon fill="#6060c0" stroke="transparent" points="518,-1595.5 518,-1616.5 741,-1616.5 741,-1595.5 518,-1595.5"/>
<polygon fill="none" stroke="black" points="518,-1595.5 518,-1616.5 741,-1616.5 741,-1595.5 518,-1595.5"/>
<text text-anchor="start" x="521" y="-1603.3" font-family="Times" font-weight="bold" font-size="14.00">bin</text>
<text text-anchor="start" x="540" y="-1603.3" font-family="Times" font-size="14.00">(+)</text>
<polygon fill="none" stroke="black" points="518,-1574.5 518,-1595.5 579,-1595.5 579,-1574.5 518,-1574.5"/>
<text text-anchor="start" x="521" y="-1582.3" font-family="Times" font-style="italic" font-size="14.00">&lt;tmp_2&gt;</text>
<polygon fill="none" stroke="black" points="579,-1574.5 579,-1595.5 599,-1595.5 599,-1574.5 579,-1574.5"/>
<text text-anchor="start" x="582" y="-1581.3" font-family="Times" font-size="14.00">#2</text>
<polygon fill="none" stroke="black" points="599,-1574.5 599,-1595.5 706,-1595.5 706,-1574.5 599,-1574.5"/>
<text text-anchor="start" x="602" y="-1581.3" font-family="Times" font-size="14.00">0x7ffe88a0e4f8:2 </text>
<polygon fill="none" stroke="black" points="706,-1574.5 706,-1595.5 741,-1595.5 741,-1574.5 706,-1574.5"/>
<text text-anchor="start" x="709" y="-1581.3" font-family="Times" font-size="14.00">=123</text>
<polygon fill="none" stroke="black" points="518,-1553.5 518,-1574.5 741,-1574.5 741,-1553.5 518,-1553.5"/>
<text text-anchor="start" x="521" y="-1561.3" font-family="Times" font-style="italic" font-size="14.00">cp(a) </text>
<polygon fill="none" stroke="black" points="518,-1532.5 518,-1553.5 579,-1553.5 579,-1532.5 518,-1532.5"/>
<text text-anchor="start" x="521" y="-1539.3" font-family="Times" font-size="14.00">b</text>
<polygon fill="none" stroke="black" points="579,-1532.5 579,-1553.5 599,-1553.5 599,-1532.5 579,-1532.5"/>
<text text-anchor="start" x="582" y="-1539.3" font-family="Times" font-size="14.00">#1</text>
<polygon fill="none" stroke="black" points="599,-1532.5 599,-1553.5 706,-1553.5 706,-1532.5 599,-1532.5"/>
<text text-anchor="start" x="602" y="-1539.3" font-family="Times" font-size="14.00">0x7ffe88a0e4a8:1 </text>
<polygon fill="none" stroke="black" points="706,-1532.5 706,-1553.5 741,-1553.5 741,-1532.5 706,-1532.5"/>
<text text-anchor="start" x="709" y="-1539.3" font-family="Times" font-size="14.00">=456</text>
<polygon fill="none" stroke="black" points="518,-1511.5 518,-1532.5 741,-1532.5 741,-1511.5 518,-1511.5"/>
<text text-anchor="start" x="521" y="-1519.3" font-family="Times" font-style="italic" font-size="14.00">b </text>
</g>
<!-- node_2&#45;&gt;node_4 -->
<g id="edge30" class="edge">
<title>node_2&#45;&gt;node_4</title>
<path fill="none" stroke="#6060c0" d="M716.83,-1815C737.68,-1815 754,-1815 754,-1815 754,-1815 754,-1564 754,-1564 754,-1564 750.62,-1564 750.62,-1564"/>
<polygon fill="#6060c0" stroke="#6060c0" points="750.62,-1560.5 740.62,-1564 750.62,-1567.5 750.62,-1560.5"/>
</g>
<!-- node_19 -->
<g id="node20" class="node">
<title>node_19</title>
<polygon fill="white" stroke="transparent" points="719.5,-186 544.5,-186 544.5,-123 719.5,-123 719.5,-186"/>
<polygon fill="#c04040" stroke="transparent" points="545,-164.5 545,-185.5 720,-185.5 720,-164.5 545,-164.5"/>
<polygon fill="none" stroke="black" points="545,-164.5 545,-185.5 720,-185.5 720,-164.5 545,-164.5"/>
<text text-anchor="start" x="548" y="-172.3" font-family="Times" font-weight="bold" font-size="14.00">dtor</text>
<polygon fill="none" stroke="black" points="545,-143.5 545,-164.5 558,-164.5 558,-143.5 545,-143.5"/>
<text text-anchor="start" x="548" y="-150.3" font-family="Times" font-size="14.00">b</text>
<polygon fill="none" stroke="black" points="558,-143.5 558,-164.5 578,-164.5 578,-143.5 558,-143.5"/>
<text text-anchor="start" x="561" y="-150.3" font-family="Times" font-size="14.00">#1</text>
<polygon fill="none" stroke="black" points="578,-143.5 578,-164.5 685,-164.5 685,-143.5 578,-143.5"/>
<text text-anchor="start" x="581" y="-150.3" font-family="Times" font-size="14.00">0x7ffe88a0e4a8:1 </text>
<polygon fill="none" stroke="black" points="685,-143.5 685,-164.5 720,-164.5 720,-143.5 685,-143.5"/>
<text text-anchor="start" x="688" y="-150.3" font-family="Times" font-size="14.00">=456</text>
<polygon fill="none" stroke="black" points="545,-122.5 545,-143.5 720,-143.5 720,-122.5 545,-122.5"/>
<text text-anchor="start" x="548" y="-130.3" font-family="Times" font-style="italic" font-size="14.00">b </text>
</g>
<!-- node_2&#45;&gt;node_19 -->
<g id="edge9" class="edge">
<title>node_2&#45;&gt;node_19</title>
<path fill="none" stroke="black" stroke-dasharray="5,2" d="M716.8,-1836C752.81,-1836 786.21,-1836 786.21,-1836 786.21,-1836 786.21,-154 786.21,-154 786.21,-154 729.92,-154 729.92,-154"/>
<polygon fill="black" stroke="black" points="729.92,-150.5 719.92,-154 729.92,-157.5 729.92,-150.5"/>
</g>
<!-- node_3&#45;&gt;node_4 -->
<g id="edge13" class="edge">
<title>node_3&#45;&gt;node_4</title>
<path fill="none" stroke="red" stroke-dasharray="5,2" d="M591.83,-1653C591.83,-1653 591.83,-1627.05 591.83,-1627.05"/>
<polygon fill="red" stroke="red" points="595.33,-1627.05 591.83,-1617.05 588.33,-1627.05 595.33,-1627.05"/>
<text text-anchor="middle" x="588.33" y="-1628.82" font-family="Times" font-size="14.00">3</text>
</g>
<!-- node_3&#45;&gt;node_4 -->
<g id="edge29" class="edge">
<title>node_3&#45;&gt;node_4</title>
<path fill="none" stroke="#6060c0" d="M666.17,-1653C666.17,-1653 666.17,-1627.05 666.17,-1627.05"/>
<polygon fill="#6060c0" stroke="#6060c0" points="669.67,-1627.05 666.17,-1617.05 662.67,-1627.05 669.67,-1627.05"/>
</g>
<!-- node_5 -->
<g id="node8" class="node">
<title>node_5</title>
<polygon fill="white" stroke="transparent" points="740,-1476 518,-1476 518,-1413 740,-1413 740,-1476"/>
<polygon fill="#c04040" stroke="transparent" points="518,-1454.5 518,-1475.5 740,-1475.5 740,-1454.5 518,-1454.5"/>
<polygon fill="none" stroke="black" points="518,-1454.5 518,-1475.5 740,-1475.5 740,-1454.5 518,-1454.5"/>
<text text-anchor="start" x="521" y="-1462.3" font-family="Times" font-weight="bold" font-size="14.00">dtor</text>
<polygon fill="none" stroke="black" points="518,-1433.5 518,-1454.5 579,-1454.5 579,-1433.5 518,-1433.5"/>
<text text-anchor="start" x="521" y="-1441.3" font-family="Times" font-style="italic" font-size="14.00">&lt;tmp_2&gt;</text>
<polygon fill="none" stroke="black" points="579,-1433.5 579,-1454.5 599,-1454.5 599,-1433.5 579,-1433.5"/>
<text text-anchor="start" x="582" y="-1440.3" font-family="Times" font-size="14.00">#2</text>
<polygon fill="none" stroke="black" points="599,-1433.5 599,-1454.5 705,-1454.5 705,-1433.5 599,-1433.5"/>
<text text-anchor="start" x="602" y="-1440.3" font-family="Times" font-size="14.00">0x7ffe88a0e4f8:2 </text>
<polygon fill="none" stroke="black" points="705,-1433.5 705,-1454.5 740,-1454.5 740,-1433.5 705,-1433.5"/>
<text text-anchor="start" x="708" y="-1440.3" font-family="Times" font-size="14.00">=579</text>
<polygon fill="none" stroke="black" points="518,-1412.5 518,-1433.5 740,-1433.5 740,-1412.5 518,-1412.5"/>
<text text-anchor="start" x="521" y="-1420.3" font-family="Times" font-style="italic" font-size="14.00">(cp(a) + b) </text>
</g>
<!-- node_3&#45;&gt;node_5 -->
<g id="edge4" class="edge">
<title>node_3&#45;&gt;node_5</title>
<path fill="none" stroke="black" stroke-dasharray="5,2" d="M741.13,-1705C745.16,-1705 747.5,-1705 747.5,-1705 747.5,-1705 747.5,-1444 747.5,-1444 747.5,-1444 746.76,-1444 746.76,-1444"/>
<polygon fill="black" stroke="black" points="750.09,-1440.5 740.09,-1444 750.09,-1447.5 750.09,-1440.5"/>
</g>
<!-- node_4&#45;&gt;node_5 -->
<g id="edge14" class="edge">
<title>node_4&#45;&gt;node_5</title>
<path fill="none" stroke="red" stroke-dasharray="5,2" d="M629,-1511.87C629,-1511.87 629,-1486.04 629,-1486.04"/>
<polygon fill="red" stroke="red" points="632.5,-1486.04 629,-1476.04 625.5,-1486.04 632.5,-1486.04"/>
<text text-anchor="middle" x="625.5" y="-1487.75" font-family="Times" font-size="14.00">4</text>
</g>
<!-- node_6 -->
<g id="node9" class="node">
<title>node_6</title>
<polygon fill="#9850b0" stroke="black" points="685,-1377 573,-1377 573,-1341 685,-1341 685,-1377"/>
<text text-anchor="start" x="581" y="-1356.3" font-family="Times" font-size="14.00">[dbg] </text>
<text text-anchor="start" x="615" y="-1356.3" font-family="Times" font-style="italic" font-size="14.00">Max&#39;s stuff</text>
</g>
<!-- node_5&#45;&gt;node_6 -->
<g id="edge15" class="edge">
<title>node_5&#45;&gt;node_6</title>
<path fill="none" stroke="red" stroke-dasharray="5,2" d="M629,-1412.66C629,-1412.66 629,-1387.2 629,-1387.2"/>
<polygon fill="red" stroke="red" points="632.5,-1387.2 629,-1377.2 625.5,-1387.2 632.5,-1387.2"/>
<text text-anchor="middle" x="625.5" y="-1388.73" font-family="Times" font-size="14.00">5</text>
</g>
<!-- node_8 -->
<g id="node10" class="node">
<title>node_8</title>
<polygon fill="white" stroke="transparent" points="713.5,-1302 544.5,-1302 544.5,-1239 713.5,-1239 713.5,-1302"/>
<polygon fill="#40c040" stroke="transparent" points="545,-1280.5 545,-1301.5 714,-1301.5 714,-1280.5 545,-1280.5"/>
<polygon fill="none" stroke="black" points="545,-1280.5 545,-1301.5 714,-1301.5 714,-1280.5 545,-1280.5"/>
<text text-anchor="start" x="548" y="-1288.3" font-family="Times" font-weight="bold" font-size="14.00">ctor</text>
<polygon fill="none" stroke="black" points="545,-1259.5 545,-1280.5 558,-1280.5 558,-1259.5 545,-1259.5"/>
<text text-anchor="start" x="548" y="-1266.3" font-family="Times" font-size="14.00">a</text>
<polygon fill="none" stroke="black" points="558,-1259.5 558,-1280.5 578,-1280.5 578,-1259.5 558,-1259.5"/>
<text text-anchor="start" x="561" y="-1266.3" font-family="Times" font-size="14.00">#3</text>
<polygon fill="none" stroke="black" points="578,-1259.5 578,-1280.5 686,-1280.5 686,-1259.5 578,-1259.5"/>
<text text-anchor="start" x="581" y="-1266.3" font-family="Times" font-size="14.00">0x7ffe88a0e458:3 </text>
<polygon fill="none" stroke="black" points="686,-1259.5 686,-1280.5 714,-1280.5 714,-1259.5 686,-1259.5"/>
<text text-anchor="start" x="689" y="-1266.3" font-family="Times" font-size="14.00">=99</text>
<polygon fill="none" stroke="black" points="545,-1238.5 545,-1259.5 714,-1259.5 714,-1238.5 545,-1238.5"/>
<text text-anchor="start" x="548" y="-1246.3" font-family="Times" font-style="italic" font-size="14.00"> </text>
</g>
<!-- node_6&#45;&gt;node_8 -->
<g id="edge16" class="edge">
<title>node_6&#45;&gt;node_8</title>
<path fill="none" stroke="red" stroke-dasharray="5,2" d="M629,-1340.66C629,-1340.66 629,-1312.06 629,-1312.06"/>
<polygon fill="red" stroke="red" points="632.5,-1312.06 629,-1302.06 625.5,-1312.06 632.5,-1312.06"/>
<text text-anchor="middle" x="625.5" y="-1330.16" font-family="Times" font-size="14.00">6</text>
</g>
<!-- node_9 -->
<g id="node11" class="node">
<title>node_9</title>
<polygon fill="white" stroke="transparent" points="710.5,-1203 547.5,-1203 547.5,-1140 710.5,-1140 710.5,-1203"/>
<polygon fill="#40c040" stroke="transparent" points="548,-1181.5 548,-1202.5 711,-1202.5 711,-1181.5 548,-1181.5"/>
<polygon fill="none" stroke="black" points="548,-1181.5 548,-1202.5 711,-1202.5 711,-1181.5 548,-1181.5"/>
<text text-anchor="start" x="551" y="-1189.3" font-family="Times" font-weight="bold" font-size="14.00">ctor</text>
<polygon fill="none" stroke="black" points="548,-1160.5 548,-1181.5 561,-1181.5 561,-1160.5 548,-1160.5"/>
<text text-anchor="start" x="551" y="-1167.3" font-family="Times" font-size="14.00">b</text>
<polygon fill="none" stroke="black" points="561,-1160.5 561,-1181.5 581,-1181.5 581,-1160.5 561,-1160.5"/>
<text text-anchor="start" x="564" y="-1167.3" font-family="Times" font-size="14.00">#4</text>
<polygon fill="none" stroke="black" points="581,-1160.5 581,-1181.5 689,-1181.5 689,-1160.5 581,-1160.5"/>
<text text-anchor="start" x="584" y="-1167.3" font-family="Times" font-size="14.00">0x7ffe88a0e440:4 </text>
<polygon fill="none" stroke="black" points="689,-1160.5 689,-1181.5 711,-1181.5 711,-1160.5 689,-1160.5"/>
<text text-anchor="start" x="692" y="-1167.3" font-family="Times" font-size="14.00">=3</text>
<polygon fill="none" stroke="black" points="548,-1139.5 548,-1160.5 711,-1160.5 711,-1139.5 548,-1139.5"/>
<text text-anchor="start" x="551" y="-1147.3" font-family="Times" font-style="italic" font-size="14.00"> </text>
</g>
<!-- node_8&#45;&gt;node_9 -->
<g id="edge17" class="edge">
<title>node_8&#45;&gt;node_9</title>
<path fill="none" stroke="red" stroke-dasharray="5,2" d="M629,-1238.9C629,-1238.9 629,-1213.14 629,-1213.14"/>
<polygon fill="red" stroke="red" points="632.5,-1213.14 629,-1203.14 625.5,-1213.14 632.5,-1213.14"/>
<text text-anchor="middle" x="625.5" y="-1214.82" font-family="Times" font-size="14.00">7</text>
</g>
<!-- node_11 -->
<g id="node13" class="node">
<title>node_11</title>
<polygon fill="white" stroke="transparent" points="760.5,-1005 543.5,-1005 543.5,-900 760.5,-900 760.5,-1005"/>
<polygon fill="#f00000" stroke="transparent" points="544,-983.5 544,-1004.5 761,-1004.5 761,-983.5 544,-983.5"/>
<polygon fill="none" stroke="black" points="544,-983.5 544,-1004.5 761,-1004.5 761,-983.5 544,-983.5"/>
<text text-anchor="start" x="547" y="-991.3" font-family="Times" font-weight="bold" font-size="14.00">COPY</text>
<polygon fill="none" stroke="black" points="544,-962.5 544,-983.5 605,-983.5 605,-962.5 544,-962.5"/>
<text text-anchor="start" x="547" y="-970.3" font-family="Times" font-style="italic" font-size="14.00">&lt;tmp_6&gt;</text>
<polygon fill="none" stroke="black" points="605,-962.5 605,-983.5 625,-983.5 625,-962.5 605,-962.5"/>
<text text-anchor="start" x="608" y="-969.3" font-family="Times" font-size="14.00">#6</text>
<polygon fill="none" stroke="black" points="625,-962.5 625,-983.5 733,-983.5 733,-962.5 625,-962.5"/>
<text text-anchor="start" x="628" y="-969.3" font-family="Times" font-size="14.00">0x7ffe88a0e410:6 </text>
<polygon fill="none" stroke="black" points="733,-962.5 733,-983.5 761,-983.5 761,-962.5 733,-962.5"/>
<text text-anchor="start" x="736" y="-969.3" font-family="Times" font-size="14.00">=0</text>
<polygon fill="none" stroke="black" points="544,-941.5 544,-962.5 761,-962.5 761,-941.5 544,-941.5"/>
<text text-anchor="start" x="547" y="-949.3" font-family="Times" font-style="italic" font-size="14.00"> </text>
<polygon fill="none" stroke="black" points="544,-920.5 544,-941.5 605,-941.5 605,-920.5 544,-920.5"/>
<text text-anchor="start" x="547" y="-927.3" font-family="Times" font-size="14.00">a</text>
<polygon fill="none" stroke="black" points="605,-920.5 605,-941.5 625,-941.5 625,-920.5 605,-920.5"/>
<text text-anchor="start" x="608" y="-927.3" font-family="Times" font-size="14.00">#3</text>
<polygon fill="none" stroke="black" points="625,-920.5 625,-941.5 733,-941.5 733,-920.5 625,-920.5"/>
<text text-anchor="start" x="628" y="-927.3" font-family="Times" font-size="14.00">0x7ffe88a0e458:3 </text>
<polygon fill="none" stroke="black" points="733,-920.5 733,-941.5 761,-941.5 761,-920.5 733,-920.5"/>
<text text-anchor="start" x="736" y="-927.3" font-family="Times" font-size="14.00">=99</text>
<polygon fill="none" stroke="black" points="544,-899.5 544,-920.5 761,-920.5 761,-899.5 544,-899.5"/>
<text text-anchor="start" x="547" y="-907.3" font-family="Times" font-style="italic" font-size="14.00">a </text>
</g>
<!-- node_8&#45;&gt;node_11 -->
<g id="edge31" class="edge">
<title>node_8&#45;&gt;node_11</title>
<path fill="none" stroke="#6060c0" d="M713.57,-1260C721.56,-1260 726.75,-1260 726.75,-1260 726.75,-1260 726.75,-1015.01 726.75,-1015.01"/>
<polygon fill="#6060c0" stroke="#6060c0" points="730.25,-1015.01 726.75,-1005.01 723.25,-1015.01 730.25,-1015.01"/>
</g>
<!-- node_17 -->
<g id="node19" class="node">
<title>node_17</title>
<polygon fill="white" stroke="transparent" points="716.5,-285 547.5,-285 547.5,-222 716.5,-222 716.5,-285"/>
<polygon fill="#c04040" stroke="transparent" points="548,-263.5 548,-284.5 717,-284.5 717,-263.5 548,-263.5"/>
<polygon fill="none" stroke="black" points="548,-263.5 548,-284.5 717,-284.5 717,-263.5 548,-263.5"/>
<text text-anchor="start" x="551" y="-271.3" font-family="Times" font-weight="bold" font-size="14.00">dtor</text>
<polygon fill="none" stroke="black" points="548,-242.5 548,-263.5 561,-263.5 561,-242.5 548,-242.5"/>
<text text-anchor="start" x="551" y="-249.3" font-family="Times" font-size="14.00">a</text>
<polygon fill="none" stroke="black" points="561,-242.5 561,-263.5 581,-263.5 581,-242.5 561,-242.5"/>
<text text-anchor="start" x="564" y="-249.3" font-family="Times" font-size="14.00">#3</text>
<polygon fill="none" stroke="black" points="581,-242.5 581,-263.5 689,-263.5 689,-242.5 581,-242.5"/>
<text text-anchor="start" x="584" y="-249.3" font-family="Times" font-size="14.00">0x7ffe88a0e458:3 </text>
<polygon fill="none" stroke="black" points="689,-242.5 689,-263.5 717,-263.5 717,-242.5 689,-242.5"/>
<text text-anchor="start" x="692" y="-249.3" font-family="Times" font-size="14.00">=99</text>
<polygon fill="none" stroke="black" points="548,-221.5 548,-242.5 717,-242.5 717,-221.5 548,-221.5"/>
<text text-anchor="start" x="551" y="-229.3" font-family="Times" font-style="italic" font-size="14.00">a </text>
</g>
<!-- node_8&#45;&gt;node_17 -->
<g id="edge8" class="edge">
<title>node_8&#45;&gt;node_17</title>
<path fill="none" stroke="black" stroke-dasharray="5,2" d="M713.93,-1281C748.76,-1281 781.07,-1281 781.07,-1281 781.07,-1281 781.07,-253 781.07,-253 781.07,-253 726.55,-253 726.55,-253"/>
<polygon fill="black" stroke="black" points="726.55,-249.5 716.55,-253 726.55,-256.5 726.55,-249.5"/>
</g>
<!-- node_10 -->
<g id="node12" class="node">
<title>node_10</title>
<polygon fill="white" stroke="transparent" points="710.5,-1104 547.5,-1104 547.5,-1041 710.5,-1041 710.5,-1104"/>
<polygon fill="#40c040" stroke="transparent" points="548,-1082.5 548,-1103.5 711,-1103.5 711,-1082.5 548,-1082.5"/>
<polygon fill="none" stroke="black" points="548,-1082.5 548,-1103.5 711,-1103.5 711,-1082.5 548,-1082.5"/>
<text text-anchor="start" x="551" y="-1090.3" font-family="Times" font-weight="bold" font-size="14.00">ctor</text>
<polygon fill="none" stroke="black" points="548,-1061.5 548,-1082.5 561,-1082.5 561,-1061.5 548,-1061.5"/>
<text text-anchor="start" x="551" y="-1068.3" font-family="Times" font-size="14.00">c</text>
<polygon fill="none" stroke="black" points="561,-1061.5 561,-1082.5 581,-1082.5 581,-1061.5 561,-1061.5"/>
<text text-anchor="start" x="564" y="-1068.3" font-family="Times" font-size="14.00">#5</text>
<polygon fill="none" stroke="black" points="581,-1061.5 581,-1082.5 689,-1082.5 689,-1061.5 581,-1061.5"/>
<text text-anchor="start" x="584" y="-1068.3" font-family="Times" font-size="14.00">0x7ffe88a0e428:5 </text>
<polygon fill="none" stroke="black" points="689,-1061.5 689,-1082.5 711,-1082.5 711,-1061.5 689,-1061.5"/>
<text text-anchor="start" x="692" y="-1068.3" font-family="Times" font-size="14.00">=0</text>
<polygon fill="none" stroke="black" points="548,-1040.5 548,-1061.5 711,-1061.5 711,-1040.5 548,-1040.5"/>
<text text-anchor="start" x="551" y="-1048.3" font-family="Times" font-style="italic" font-size="14.00"> </text>
</g>
<!-- node_9&#45;&gt;node_10 -->
<g id="edge18" class="edge">
<title>node_9&#45;&gt;node_10</title>
<path fill="none" stroke="red" stroke-dasharray="5,2" d="M629,-1139.9C629,-1139.9 629,-1114.14 629,-1114.14"/>
<polygon fill="red" stroke="red" points="632.5,-1114.14 629,-1104.14 625.5,-1114.14 632.5,-1114.14"/>
<text text-anchor="middle" x="625.5" y="-1115.82" font-family="Times" font-size="14.00">8</text>
</g>
<!-- node_12 -->
<g id="node14" class="node">
<title>node_12</title>
<polygon fill="white" stroke="transparent" points="740.5,-864 523.5,-864 523.5,-759 740.5,-759 740.5,-864"/>
<polygon fill="#6060c0" stroke="transparent" points="524,-842.5 524,-863.5 741,-863.5 741,-842.5 524,-842.5"/>
<polygon fill="none" stroke="black" points="524,-842.5 524,-863.5 741,-863.5 741,-842.5 524,-842.5"/>
<text text-anchor="start" x="527" y="-850.3" font-family="Times" font-weight="bold" font-size="14.00">bin</text>
<text text-anchor="start" x="546" y="-850.3" font-family="Times" font-size="14.00">(+)</text>
<polygon fill="none" stroke="black" points="524,-821.5 524,-842.5 585,-842.5 585,-821.5 524,-821.5"/>
<text text-anchor="start" x="527" y="-829.3" font-family="Times" font-style="italic" font-size="14.00">&lt;tmp_6&gt;</text>
<polygon fill="none" stroke="black" points="585,-821.5 585,-842.5 605,-842.5 605,-821.5 585,-821.5"/>
<text text-anchor="start" x="588" y="-828.3" font-family="Times" font-size="14.00">#6</text>
<polygon fill="none" stroke="black" points="605,-821.5 605,-842.5 713,-842.5 713,-821.5 605,-821.5"/>
<text text-anchor="start" x="608" y="-828.3" font-family="Times" font-size="14.00">0x7ffe88a0e410:6 </text>
<polygon fill="none" stroke="black" points="713,-821.5 713,-842.5 741,-842.5 741,-821.5 713,-821.5"/>
<text text-anchor="start" x="716" y="-828.3" font-family="Times" font-size="14.00">=99</text>
<polygon fill="none" stroke="black" points="524,-800.5 524,-821.5 741,-821.5 741,-800.5 524,-800.5"/>
<text text-anchor="start" x="527" y="-808.3" font-family="Times" font-style="italic" font-size="14.00">cp(a) </text>
<polygon fill="none" stroke="black" points="524,-779.5 524,-800.5 585,-800.5 585,-779.5 524,-779.5"/>
<text text-anchor="start" x="527" y="-786.3" font-family="Times" font-size="14.00">b</text>
<polygon fill="none" stroke="black" points="585,-779.5 585,-800.5 605,-800.5 605,-779.5 585,-779.5"/>
<text text-anchor="start" x="588" y="-786.3" font-family="Times" font-size="14.00">#4</text>
<polygon fill="none" stroke="black" points="605,-779.5 605,-800.5 713,-800.5 713,-779.5 605,-779.5"/>
<text text-anchor="start" x="608" y="-786.3" font-family="Times" font-size="14.00">0x7ffe88a0e440:4 </text>
<polygon fill="none" stroke="black" points="713,-779.5 713,-800.5 741,-800.5 741,-779.5 713,-779.5"/>
<text text-anchor="start" x="716" y="-786.3" font-family="Times" font-size="14.00">=3</text>
<polygon fill="none" stroke="black" points="524,-758.5 524,-779.5 741,-779.5 741,-758.5 524,-758.5"/>
<text text-anchor="start" x="527" y="-766.3" font-family="Times" font-style="italic" font-size="14.00">b </text>
</g>
<!-- node_9&#45;&gt;node_12 -->
<g id="edge33" class="edge">
<title>node_9&#45;&gt;node_12</title>
<path fill="none" stroke="#6060c0" d="M547.18,-1171C538.92,-1171 533.5,-1171 533.5,-1171 533.5,-1171 533.5,-874.16 533.5,-874.16"/>
<polygon fill="#6060c0" stroke="#6060c0" points="537,-874.16 533.5,-864.16 530,-874.16 537,-874.16"/>
</g>
<!-- node_16 -->
<g id="node18" class="node">
<title>node_16</title>
<polygon fill="white" stroke="transparent" points="713.5,-384 550.5,-384 550.5,-321 713.5,-321 713.5,-384"/>
<polygon fill="#c04040" stroke="transparent" points="551,-362.5 551,-383.5 714,-383.5 714,-362.5 551,-362.5"/>
<polygon fill="none" stroke="black" points="551,-362.5 551,-383.5 714,-383.5 714,-362.5 551,-362.5"/>
<text text-anchor="start" x="554" y="-370.3" font-family="Times" font-weight="bold" font-size="14.00">dtor</text>
<polygon fill="none" stroke="black" points="551,-341.5 551,-362.5 564,-362.5 564,-341.5 551,-341.5"/>
<text text-anchor="start" x="554" y="-348.3" font-family="Times" font-size="14.00">b</text>
<polygon fill="none" stroke="black" points="564,-341.5 564,-362.5 584,-362.5 584,-341.5 564,-341.5"/>
<text text-anchor="start" x="567" y="-348.3" font-family="Times" font-size="14.00">#4</text>
<polygon fill="none" stroke="black" points="584,-341.5 584,-362.5 692,-362.5 692,-341.5 584,-341.5"/>
<text text-anchor="start" x="587" y="-348.3" font-family="Times" font-size="14.00">0x7ffe88a0e440:4 </text>
<polygon fill="none" stroke="black" points="692,-341.5 692,-362.5 714,-362.5 714,-341.5 692,-341.5"/>
<text text-anchor="start" x="695" y="-348.3" font-family="Times" font-size="14.00">=3</text>
<polygon fill="none" stroke="black" points="551,-320.5 551,-341.5 714,-341.5 714,-320.5 551,-320.5"/>
<text text-anchor="start" x="554" y="-328.3" font-family="Times" font-style="italic" font-size="14.00">b </text>
</g>
<!-- node_9&#45;&gt;node_16 -->
<g id="edge7" class="edge">
<title>node_9&#45;&gt;node_16</title>
<path fill="none" stroke="black" stroke-dasharray="5,2" d="M710.63,-1171C744.45,-1171 775.93,-1171 775.93,-1171 775.93,-1171 775.93,-352 775.93,-352 775.93,-352 723.64,-352 723.64,-352"/>
<polygon fill="black" stroke="black" points="723.64,-348.5 713.64,-352 723.64,-355.5 723.64,-348.5"/>
</g>
<!-- node_10&#45;&gt;node_11 -->
<g id="edge19" class="edge">
<title>node_10&#45;&gt;node_11</title>
<path fill="none" stroke="red" stroke-dasharray="5,2" d="M629,-1040.97C629,-1040.97 629,-1015.16 629,-1015.16"/>
<polygon fill="red" stroke="red" points="632.5,-1015.16 629,-1005.16 625.5,-1015.16 632.5,-1015.16"/>
<text text-anchor="middle" x="625.5" y="-1016.87" font-family="Times" font-size="14.00">9</text>
</g>
<!-- node_13 -->
<g id="node15" class="node">
<title>node_13</title>
<polygon fill="white" stroke="transparent" points="737.5,-723 526.5,-723 526.5,-618 737.5,-618 737.5,-723"/>
<polygon fill="#f0f000" stroke="transparent" points="527,-701.5 527,-722.5 738,-722.5 738,-701.5 527,-701.5"/>
<polygon fill="none" stroke="black" points="527,-701.5 527,-722.5 738,-722.5 738,-701.5 527,-701.5"/>
<text text-anchor="start" x="530" y="-709.3" font-family="Times" font-weight="bold" font-size="14.00">MOVE</text>
<text text-anchor="start" x="573" y="-709.3" font-family="Times" font-size="14.00">(=)</text>
<polygon fill="none" stroke="black" points="527,-680.5 527,-701.5 588,-701.5 588,-680.5 527,-680.5"/>
<text text-anchor="start" x="530" y="-687.3" font-family="Times" font-size="14.00">c</text>
<polygon fill="none" stroke="black" points="588,-680.5 588,-701.5 608,-701.5 608,-680.5 588,-680.5"/>
<text text-anchor="start" x="591" y="-687.3" font-family="Times" font-size="14.00">#5</text>
<polygon fill="none" stroke="black" points="608,-680.5 608,-701.5 716,-701.5 716,-680.5 608,-680.5"/>
<text text-anchor="start" x="611" y="-687.3" font-family="Times" font-size="14.00">0x7ffe88a0e428:5 </text>
<polygon fill="none" stroke="black" points="716,-680.5 716,-701.5 738,-701.5 738,-680.5 716,-680.5"/>
<text text-anchor="start" x="719" y="-687.3" font-family="Times" font-size="14.00">=0</text>
<polygon fill="none" stroke="black" points="527,-659.5 527,-680.5 738,-680.5 738,-659.5 527,-659.5"/>
<text text-anchor="start" x="530" y="-667.3" font-family="Times" font-style="italic" font-size="14.00">c </text>
<polygon fill="none" stroke="black" points="527,-638.5 527,-659.5 588,-659.5 588,-638.5 527,-638.5"/>
<text text-anchor="start" x="530" y="-646.3" font-family="Times" font-style="italic" font-size="14.00">&lt;tmp_6&gt;</text>
<polygon fill="none" stroke="black" points="588,-638.5 588,-659.5 608,-659.5 608,-638.5 588,-638.5"/>
<text text-anchor="start" x="591" y="-645.3" font-family="Times" font-size="14.00">#6</text>
<polygon fill="none" stroke="black" points="608,-638.5 608,-659.5 716,-659.5 716,-638.5 608,-638.5"/>
<text text-anchor="start" x="611" y="-645.3" font-family="Times" font-size="14.00">0x7ffe88a0e410:6 </text>
<polygon fill="none" stroke="black" points="716,-638.5 716,-659.5 738,-659.5 738,-638.5 716,-638.5"/>
<text text-anchor="start" x="719" y="-645.3" font-family="Times" font-size="14.00">=0</text>
<polygon fill="none" stroke="black" points="527,-617.5 527,-638.5 738,-638.5 738,-617.5 527,-617.5"/>
<text text-anchor="start" x="530" y="-625.3" font-family="Times" font-style="italic" font-size="14.00">(cp(a) + b) </text>
</g>
<!-- node_10&#45;&gt;node_13 -->
<g id="edge34" class="edge">
<title>node_10&#45;&gt;node_13</title>
<path fill="none" stroke="#6060c0" d="M710.85,-1062C739.95,-1062 765.64,-1062 765.64,-1062 765.64,-1062 765.64,-670 765.64,-670 765.64,-670 747.63,-670 747.63,-670"/>
<polygon fill="#6060c0" stroke="#6060c0" points="747.63,-666.5 737.63,-670 747.63,-673.5 747.63,-666.5"/>
</g>
<!-- node_15 -->
<g id="node17" class="node">
<title>node_15</title>
<polygon fill="white" stroke="transparent" points="720,-483 544,-483 544,-420 720,-420 720,-483"/>
<polygon fill="#c04040" stroke="transparent" points="544,-461.5 544,-482.5 720,-482.5 720,-461.5 544,-461.5"/>
<polygon fill="none" stroke="black" points="544,-461.5 544,-482.5 720,-482.5 720,-461.5 544,-461.5"/>
<text text-anchor="start" x="547" y="-469.3" font-family="Times" font-weight="bold" font-size="14.00">dtor</text>
<polygon fill="none" stroke="black" points="544,-440.5 544,-461.5 557,-461.5 557,-440.5 544,-440.5"/>
<text text-anchor="start" x="547" y="-447.3" font-family="Times" font-size="14.00">c</text>
<polygon fill="none" stroke="black" points="557,-440.5 557,-461.5 577,-461.5 577,-440.5 557,-440.5"/>
<text text-anchor="start" x="560" y="-447.3" font-family="Times" font-size="14.00">#5</text>
<polygon fill="none" stroke="black" points="577,-440.5 577,-461.5 685,-461.5 685,-440.5 577,-440.5"/>
<text text-anchor="start" x="580" y="-447.3" font-family="Times" font-size="14.00">0x7ffe88a0e428:5 </text>
<polygon fill="none" stroke="black" points="685,-440.5 685,-461.5 720,-461.5 720,-440.5 685,-440.5"/>
<text text-anchor="start" x="688" y="-447.3" font-family="Times" font-size="14.00">=102</text>
<polygon fill="none" stroke="black" points="544,-419.5 544,-440.5 720,-440.5 720,-419.5 544,-419.5"/>
<text text-anchor="start" x="547" y="-427.3" font-family="Times" font-style="italic" font-size="14.00">mv((cp(a) + b)) </text>
</g>
<!-- node_10&#45;&gt;node_15 -->
<g id="edge6" class="edge">
<title>node_10&#45;&gt;node_15</title>
<path fill="none" stroke="black" stroke-dasharray="5,2" d="M710.66,-1083C742.17,-1083 770.79,-1083 770.79,-1083 770.79,-1083 770.79,-451 770.79,-451 770.79,-451 730.29,-451 730.29,-451"/>
<polygon fill="black" stroke="black" points="730.29,-447.5 720.29,-451 730.29,-454.5 730.29,-447.5"/>
</g>
<!-- node_11&#45;&gt;node_12 -->
<g id="edge20" class="edge">
<title>node_11&#45;&gt;node_12</title>
<path fill="none" stroke="red" stroke-dasharray="5,2" d="M609.17,-900C609.17,-900 609.17,-874.05 609.17,-874.05"/>
<polygon fill="red" stroke="red" points="612.67,-874.05 609.17,-864.05 605.67,-874.05 612.67,-874.05"/>
<text text-anchor="middle" x="602.17" y="-875.82" font-family="Times" font-size="14.00">10</text>
</g>
<!-- node_11&#45;&gt;node_12 -->
<g id="edge32" class="edge">
<title>node_11&#45;&gt;node_12</title>
<path fill="none" stroke="#6060c0" d="M674.83,-900C674.83,-900 674.83,-874.05 674.83,-874.05"/>
<polygon fill="#6060c0" stroke="#6060c0" points="678.33,-874.05 674.83,-864.05 671.33,-874.05 678.33,-874.05"/>
</g>
<!-- node_14 -->
<g id="node16" class="node">
<title>node_14</title>
<polygon fill="white" stroke="transparent" points="737.5,-582 526.5,-582 526.5,-519 737.5,-519 737.5,-582"/>
<polygon fill="#c04040" stroke="transparent" points="527,-560.5 527,-581.5 738,-581.5 738,-560.5 527,-560.5"/>
<polygon fill="none" stroke="black" points="527,-560.5 527,-581.5 738,-581.5 738,-560.5 527,-560.5"/>
<text text-anchor="start" x="530" y="-568.3" font-family="Times" font-weight="bold" font-size="14.00">dtor</text>
<polygon fill="none" stroke="black" points="527,-539.5 527,-560.5 588,-560.5 588,-539.5 527,-539.5"/>
<text text-anchor="start" x="530" y="-547.3" font-family="Times" font-style="italic" font-size="14.00">&lt;tmp_6&gt;</text>
<polygon fill="none" stroke="black" points="588,-539.5 588,-560.5 608,-560.5 608,-539.5 588,-539.5"/>
<text text-anchor="start" x="591" y="-546.3" font-family="Times" font-size="14.00">#6</text>
<polygon fill="none" stroke="black" points="608,-539.5 608,-560.5 716,-560.5 716,-539.5 608,-539.5"/>
<text text-anchor="start" x="611" y="-546.3" font-family="Times" font-size="14.00">0x7ffe88a0e410:6 </text>
<polygon fill="none" stroke="black" points="716,-539.5 716,-560.5 738,-560.5 738,-539.5 716,-539.5"/>
<text text-anchor="start" x="719" y="-546.3" font-family="Times" font-size="14.00">=0</text>
<polygon fill="none" stroke="black" points="527,-518.5 527,-539.5 738,-539.5 738,-518.5 527,-518.5"/>
<text text-anchor="start" x="530" y="-526.3" font-family="Times" font-style="italic" font-size="14.00">(cp(a) + b) </text>
</g>
<!-- node_11&#45;&gt;node_14 -->
<g id="edge5" class="edge">
<title>node_11&#45;&gt;node_14</title>
<path fill="none" stroke="black" stroke-dasharray="5,2" d="M750.5,-899.88C750.5,-790.78 750.5,-550 750.5,-550 750.5,-550 747.82,-550 747.82,-550"/>
<polygon fill="black" stroke="black" points="747.82,-546.5 737.82,-550 747.82,-553.5 747.82,-546.5"/>
</g>
<!-- node_12&#45;&gt;node_13 -->
<g id="edge21" class="edge">
<title>node_12&#45;&gt;node_13</title>
<path fill="none" stroke="red" stroke-dasharray="5,2" d="M596.83,-759C596.83,-759 596.83,-733.05 596.83,-733.05"/>
<polygon fill="red" stroke="red" points="600.33,-733.05 596.83,-723.05 593.33,-733.05 600.33,-733.05"/>
<text text-anchor="middle" x="589.83" y="-734.82" font-family="Times" font-size="14.00">11</text>
</g>
<!-- node_12&#45;&gt;node_13 -->
<g id="edge35" class="edge">
<title>node_12&#45;&gt;node_13</title>
<path fill="none" stroke="#6060c0" d="M667.17,-759C667.17,-759 667.17,-733.05 667.17,-733.05"/>
<polygon fill="#6060c0" stroke="#6060c0" points="670.67,-733.05 667.17,-723.05 663.67,-733.05 670.67,-733.05"/>
</g>
<!-- node_13&#45;&gt;node_14 -->
<g id="edge22" class="edge">
<title>node_13&#45;&gt;node_14</title>
<path fill="none" stroke="red" stroke-dasharray="5,2" d="M632,-617.87C632,-617.87 632,-592.04 632,-592.04"/>
<polygon fill="red" stroke="red" points="635.5,-592.04 632,-582.04 628.5,-592.04 635.5,-592.04"/>
<text text-anchor="middle" x="625" y="-593.75" font-family="Times" font-size="14.00">12</text>
</g>
<!-- node_14&#45;&gt;node_15 -->
<g id="edge23" class="edge">
<title>node_14&#45;&gt;node_15</title>
<path fill="none" stroke="red" stroke-dasharray="5,2" d="M632,-518.9C632,-518.9 632,-493.14 632,-493.14"/>
<polygon fill="red" stroke="red" points="635.5,-493.14 632,-483.14 628.5,-493.14 635.5,-493.14"/>
<text text-anchor="middle" x="625" y="-494.82" font-family="Times" font-size="14.00">13</text>
</g>
<!-- node_15&#45;&gt;node_16 -->
<g id="edge24" class="edge">
<title>node_15&#45;&gt;node_16</title>
<path fill="none" stroke="red" stroke-dasharray="5,2" d="M632,-419.9C632,-419.9 632,-394.14 632,-394.14"/>
<polygon fill="red" stroke="red" points="635.5,-394.14 632,-384.14 628.5,-394.14 635.5,-394.14"/>
<text text-anchor="middle" x="625" y="-395.82" font-family="Times" font-size="14.00">14</text>
</g>
<!-- node_16&#45;&gt;node_17 -->
<g id="edge25" class="edge">
<title>node_16&#45;&gt;node_17</title>
<path fill="none" stroke="red" stroke-dasharray="5,2" d="M632,-320.9C632,-320.9 632,-295.14 632,-295.14"/>
<polygon fill="red" stroke="red" points="635.5,-295.14 632,-285.14 628.5,-295.14 635.5,-295.14"/>
<text text-anchor="middle" x="625" y="-296.82" font-family="Times" font-size="14.00">15</text>
</g>
<!-- node_17&#45;&gt;node_19 -->
<g id="edge26" class="edge">
<title>node_17&#45;&gt;node_19</title>
<path fill="none" stroke="red" stroke-dasharray="5,2" d="M632,-221.9C632,-221.9 632,-196.14 632,-196.14"/>
<polygon fill="red" stroke="red" points="635.5,-196.14 632,-186.14 628.5,-196.14 635.5,-196.14"/>
<text text-anchor="middle" x="625" y="-197.82" font-family="Times" font-size="14.00">16</text>
</g>
<!-- node_19&#45;&gt;node_20 -->
<g id="edge27" class="edge">
<title>node_19&#45;&gt;node_20</title>
<path fill="none" stroke="red" stroke-dasharray="5,2" d="M632,-122.9C632,-122.9 632,-97.14 632,-97.14"/>
<polygon fill="red" stroke="red" points="635.5,-97.14 632,-87.14 628.5,-97.14 635.5,-97.14"/>
<text text-anchor="middle" x="625" y="-98.82" font-family="Times" font-size="14.00">17</text>
</g>
<!-- info -->
<g id="node22" class="node">
<title>info</title>
<polygon fill="none" stroke="black" points="20,-1965 20,-1986 101,-1986 101,-1965 20,-1965"/>
<text text-anchor="start" x="23" y="-1971.8" font-family="Consolas" font-size="14.00">Summary:</text>
<polygon fill="none" stroke="black" points="20,-1942 20,-1963 84,-1963 84,-1942 20,-1942"/>
<text text-anchor="start" x="23" y="-1948.8" font-family="Consolas" font-size="14.00">Copies:</text>
<polygon fill="none" stroke="black" points="86,-1942 86,-1963 101,-1963 101,-1942 86,-1942"/>
<text text-anchor="start" x="89" y="-1948.8" font-family="Consolas" font-size="14.00">2</text>
<polygon fill="none" stroke="black" points="20,-1919 20,-1940 84,-1940 84,-1919 20,-1919"/>
<text text-anchor="start" x="23" y="-1925.8" font-family="Consolas" font-size="14.00">Moves:</text>
<polygon fill="none" stroke="black" points="86,-1919 86,-1940 101,-1940 101,-1919 86,-1919"/>
<text text-anchor="start" x="89" y="-1925.8" font-family="Consolas" font-size="14.00">1</text>
<polygon fill="none" stroke="black" points="20,-1896 20,-1917 84,-1917 84,-1896 20,-1896"/>
<text text-anchor="start" x="23" y="-1902.8" font-family="Consolas" font-size="14.00">Total:</text>
<polygon fill="none" stroke="black" points="86,-1896 86,-1917 101,-1917 101,-1896 86,-1896"/>
<text text-anchor="start" x="89" y="-1902.8" font-family="Consolas" font-size="14.00">3</text>
<polygon fill="none" stroke="black" points="16.5,-1893 16.5,-1989 103.5,-1989 103.5,-1893 16.5,-1893"/>
</g>
</g>
</svg>
